# Blender v2.74 (sub 0) OBJ File: ''
# www.blender.org
mtllib pirate-ship-giant.mtl
o Sail2
v 1.062779 2.061735 0.000000
v 1.481574 1.140769 0.000000
v 1.062779 0.616048 0.000000
v 1.361040 1.140769 -0.559764
v 1.361040 1.140769 0.559764
v 0.942245 0.616048 -0.500000
v 0.942245 0.616048 0.500000
v 0.942245 2.061735 0.500000
v 0.942245 2.061735 -0.500000
vt 0.000000 1.000000
vt 0.000000 0.000000
vt 1.000000 0.000000
vt 1.000000 1.000000
vn -0.781600 0.623800 0.000000
vn 0.000000 1.000000 0.000000
vn 0.000000 -1.000000 0.000000
vn 0.764800 -0.620300 0.174000
vn 0.764800 -0.620300 -0.174000
vn -0.910300 -0.413900 0.000000
vn 0.889000 0.410800 0.202200
vn 0.889000 0.410800 -0.202200
usemtl b0b0b0
s 1
f 4/1/1 6/2/1 7/3/1 5/4/1
f 9/1/2 8/2/2 1/3/2
f 7/1/3 6/2/3 3/3/3
f 5/1/4 7/2/4 3/3/4 2/4/4
f 2/1/5 3/2/5 6/3/5 4/4/5
f 4/2/6 5/2/6 8/2/6 9/2/6
f 5/2/7 2/2/7 1/2/7 8/2/7
f 2/2/8 4/2/8 9/2/8 1/2/8
o Sail0
v -1.256721 2.061735 0.000000
v -0.837926 1.140769 0.000000
v -1.256721 0.616048 0.000000
v -0.958460 1.140769 -0.559764
v -0.958460 1.140769 0.559764
v -1.377255 0.616048 -0.500000
v -1.377255 0.616048 0.500000
v -1.377255 2.061735 0.500000
v -1.377255 2.061735 -0.500000
vt 0.000000 1.000000
vt 0.000000 0.000000
vt 1.000000 0.000000
vt 1.000000 1.000000
vn -0.781600 0.623800 0.000000
vn 0.000000 1.000000 0.000000
vn 0.000000 -1.000000 0.000000
vn 0.764800 -0.620300 0.174000
vn 0.764800 -0.620300 -0.174000
vn -0.910300 -0.413900 0.000000
vn 0.889000 0.410800 0.202200
vn 0.889000 0.410800 -0.202200
usemtl b0b0b0
s 1
f 13/5/9 15/6/9 16/7/9 14/8/9
f 18/5/10 17/6/10 10/7/10
f 16/5/11 15/6/11 12/7/11
f 14/5/12 16/6/12 12/7/12 11/8/12
f 11/5/13 12/6/13 15/7/13 13/8/13
f 13/6/14 14/6/14 17/6/14 18/6/14
f 14/6/15 11/6/15 10/6/15 17/6/15
f 11/6/16 13/6/16 18/6/16 10/6/16
o Hull
v 2.518636 0.701210 0.000000
v 2.030310 -0.144100 0.000000
v 1.600688 0.491813 0.588200
v 1.600688 0.491813 -0.588200
v 1.098135 -0.144100 0.437882
v 1.098135 -0.144100 -0.437882
v -1.899827 0.491813 -0.588200
v -1.899827 0.491813 0.588200
v -1.896457 -0.144100 -0.437882
v -1.896457 -0.144100 0.437882
v -2.735658 0.491139 -0.588200
v -2.542330 -0.144774 -0.325489
v -2.542330 -0.144774 0.325489
v -2.735658 0.491139 0.588200
v -2.264078 0.834280 -0.588200
v -2.264078 0.834280 0.588200
v -2.799141 0.833606 -0.588200
v -2.799141 0.833606 0.588200
v -1.821425 -0.344143 -0.340806
v 0.971642 -0.344143 -0.340806
v 0.971642 -0.344143 0.340806
v -1.821425 -0.344143 0.340806
v -2.324111 -0.344667 0.253330
v -2.324111 -0.344667 -0.253330
v 1.697160 -0.344143 0.000000
vt 1.000000 0.635239
vt 0.776682 -0.000674
vt 0.223317 -0.000674
vt 0.000000 0.635239
vt -1.399827 1.000000
vt -1.399827 0.000000
vt 2.100688 0.000000
vt 2.100688 1.000000
vt 2.321425 0.210297
vt 2.321425 0.789703
vt -0.471642 0.789703
vt -0.471642 0.210297
vt 2.399827 0.635913
vt 2.396457 0.000000
vt -0.598135 0.000000
vt -1.100688 0.635913
vt 2.100688 0.635913
vt 1.598135 0.000000
vt -1.396457 0.000000
vt -1.399827 0.635913
vt 3.042330 -0.000674
vt 3.235658 0.635239
vt 2.824111 0.284656
vt 2.824111 0.715344
vt -2.235658 0.635239
vt -2.042330 -0.000674
vt 2.764078 0.000000
vt 2.764078 1.000000
vt 3.299141 1.000000
vt 3.299141 0.000000
vt -1.764078 1.000000
vt -1.764078 0.000000
vt 3.299141 0.977706
vt 2.764078 0.978380
vt 0.000000 0.977706
vt 1.000000 0.977706
vt -1.764078 0.978380
vt -2.299141 0.977706
vt -1.530310 0.000000
vt -2.018636 0.845310
vt -1.197160 0.500000
vt 3.018636 0.845310
vt 2.530310 0.000000
vt -1.100688 1.000000
vt -1.100688 0.000000
vt -2.018636 0.500000
vt 1.471642 -0.200043
vt -1.321425 -0.200043
vt 2.321425 -0.200043
vt -0.471642 -0.200043
vt -1.824112 -0.200567
vt -2.042330 0.223317
vt -2.042330 0.776682
vt -1.824112 0.715344
vt -1.824112 0.284656
vt 2.824111 -0.200567
vt 2.197160 -0.200043
vt -1.197160 -0.200043
vn -0.956800 -0.290900 0.000000
vn 0.000000 1.000000 0.000000
vn 0.000000 -1.000000 -0.000000
vn 0.000500 -1.000000 0.000000
vn 0.000000 -0.230000 0.973200
vn 0.000000 -0.230000 -0.973200
vn -0.071400 -0.318100 -0.945400
vn 0.001000 -1.000000 0.000000
vn -0.071400 -0.318100 0.945400
vn -0.001300 1.000000 0.000000
vn 0.685000 0.728600 0.000000
vn -0.000000 0.000000 -1.000000
vn -0.983200 -0.182300 0.000000
vn -0.000000 0.000000 1.000000
vn 0.478800 -0.399600 0.781700
vn 0.478800 -0.399600 -0.781700
vn -0.222400 0.975000 0.000000
vn 0.000000 -0.436600 -0.899700
vn 0.000000 -0.436600 0.899700
vn -0.150200 -0.476700 0.866200
vn -0.675500 -0.737400 0.000000
vn -0.150200 -0.476700 -0.866200
vn 0.347000 -0.577900 -0.738700
vn 0.347000 -0.577900 0.738700
usemtl 6b551d
s 1
f 29/9/17 30/10/17 31/11/17
f 29/9/17 31/11/17 32/12/17
f 25/13/18 26/14/18 21/15/18
f 25/13/18 21/15/18 22/16/18
f 40/17/19 37/18/20 38/19/19
f 40/17/19 38/19/19 39/20/19
f 26/21/21 28/22/21 23/23/21
f 26/21/21 23/23/21 21/24/21
f 22/25/22 24/26/22 27/27/22
f 22/25/22 27/27/22 25/28/22
f 25/21/23 27/22/23 30/29/23 29/30/23
f 37/18/20 40/17/19 41/31/24 42/32/24
f 28/27/25 26/28/25 32/33/25 31/34/25
f 34/35/26 33/36/26 35/37/26 36/38/26
f 26/14/27 25/13/27 33/39/27 34/40/27
f 25/21/28 29/30/28 35/41/28 33/42/28
f 29/9/29 32/12/29 36/43/29 35/44/29
f 32/33/30 26/28/30 34/45/30 36/46/30
f 21/24/31 23/23/31 20/47/31 19/48/31
f 39/20/19 38/19/19 43/49/19
f 24/26/32 22/25/32 19/50/32 20/51/32
f 22/52/33 21/53/33 19/54/33
f 27/27/34 24/26/34 38/55/34 37/56/34
f 23/23/35 28/22/35 40/57/35 39/58/35
f 28/27/36 31/34/36 41/59/36 40/56/36
f 31/60/37 30/61/37 42/62/37 41/63/37
f 30/29/38 27/22/38 37/57/38 42/64/38
f 24/26/39 20/51/39 43/65/39 38/55/39
f 20/47/40 23/23/40 39/58/40 43/66/40
o Mast0
v -1.400854 2.269299 0.000000
v -1.400854 0.464683 0.000000
v -1.498673 2.269299 -0.030701
v -1.498673 2.269299 0.030701
v -1.498673 0.464683 -0.030701
v -1.498673 0.464683 0.030701
vt 0.000000 1.000000
vt 0.000000 0.000000
vt 1.000000 0.000000
vt 1.000000 1.000000
vn -1.000000 0.000000 0.000000
vn 0.000000 1.000000 0.000000
vn 0.000000 -1.000000 0.000000
vn 0.299500 0.000000 0.954100
vn 0.299500 0.000000 -0.954100
usemtl 514630
s 1
f 46/67/41 48/68/41 49/69/41 47/70/41
f 46/67/42 47/68/42 44/69/42
f 49/67/43 48/68/43 45/69/43
f 47/67/44 49/68/44 45/69/44 44/70/44
f 44/67/45 45/68/45 48/69/45 46/70/45
o Sail1
v -0.166921 2.313011 0.000000
v 0.251874 1.238487 0.000000
v -0.166921 0.616048 0.000000
v 0.131340 1.238487 -0.607576
v 0.131340 1.238487 0.607576
v -0.287455 0.616048 -0.500000
v -0.287455 0.616048 0.500000
v -0.287455 2.313011 0.500000
v -0.287455 2.313011 -0.500000
vt 0.000000 1.000000
vt 0.000000 0.000000
vt 1.000000 0.000000
vt 1.000000 1.000000
vn -0.829700 0.558200 0.000000
vn 0.000000 1.000000 0.000000
vn 0.000000 -1.000000 0.000000
vn 0.809600 -0.559900 0.176200
vn 0.809600 -0.559900 -0.176200
vn -0.931700 -0.363100 0.000000
vn 0.909900 0.364500 0.198000
vn 0.909900 0.364500 -0.198000
usemtl b0b0b0
s 1
f 53/71/46 55/72/46 56/73/46 54/74/46
f 58/71/47 57/72/47 50/73/47
f 56/71/48 55/72/48 52/73/48
f 54/71/49 56/72/49 52/73/49 51/74/49
f 51/71/50 52/72/50 55/73/50 53/74/50
f 53/72/51 54/72/51 57/72/51 58/72/51
f 54/72/52 51/72/52 50/72/52 57/72/52
f 51/72/53 53/72/53 58/72/53 50/72/53
o Mast2
v 0.918646 2.269299 0.000000
v 0.918646 0.464683 0.000000
v 0.820827 2.269299 -0.030701
v 0.820827 2.269299 0.030701
v 0.820827 0.464683 -0.030701
v 0.820827 0.464683 0.030701
vt 0.000000 1.000000
vt 0.000000 0.000000
vt 1.000000 0.000000
vt 1.000000 1.000000
vn -1.000000 0.000000 0.000000
vn 0.000000 1.000000 0.000000
vn 0.000000 -1.000000 0.000000
vn 0.299500 0.000000 0.954100
vn 0.299500 0.000000 -0.954100
usemtl 514630
s 1
f 61/75/54 63/76/54 64/77/54 62/78/54
f 61/75/55 62/76/55 59/77/55
f 64/75/56 63/76/56 60/77/56
f 62/75/57 64/76/57 60/77/57 59/78/57
f 59/75/58 60/76/58 63/77/58 61/78/58
o Mast1
v -0.311054 2.562455 0.000000
v -0.311054 0.464683 0.000000
v -0.408873 2.562455 -0.030701
v -0.408873 2.562455 0.030701
v -0.408873 0.464683 -0.030701
v -0.408873 0.464683 0.030701
vt 0.000000 1.000000
vt 0.000000 0.000000
vt 1.000000 0.000000
vt 1.000000 1.000000
vn -1.000000 0.000000 0.000000
vn 0.000000 1.000000 0.000000
vn 0.000000 -1.000000 0.000000
vn 0.299500 0.000000 0.954100
vn 0.299500 0.000000 -0.954100
usemtl 514630
s 1
f 67/79/59 69/80/59 70/81/59 68/82/59
f 67/79/60 68/80/60 65/81/60
f 70/79/61 69/80/61 66/81/61
f 68/79/62 70/80/62 66/81/62 65/82/62
f 65/79/63 66/80/63 69/81/63 67/82/63
